<svg width="33" height="22" viewBox="0 0 33 22" fill="none" xmlns="http://www.w3.org/2000/svg">
<path d="M15.2641 15.5863H12.391C12.3644 15.6676 12.3297 15.7461 12.2875 15.8204C11.731 16.9624 10.6618 17.7658 9.41434 17.9792C8.32579 18.2113 7.19027 17.9755 6.28237 17.329C4.65414 16.1997 4.04819 14.0708 4.83589 12.2471C5.62359 10.4235 7.58493 9.4143 9.51788 9.83814C10.725 10.0857 11.7487 10.8836 12.2875 11.997L12.391 12.231H15.5748C15.0571 9.44799 12.2098 6.40484 8.14602 6.63893C5.46595 6.67557 3.02482 8.19556 1.79919 10.5908C0.573562 12.9861 0.763568 15.8655 2.2932 18.0772C3.82283 20.2889 6.44231 21.4717 9.10373 21.1524C12.5463 20.9183 15.1088 18.1353 15.5489 15.6123H15.2641V15.5863Z" fill="#F8F3EE"/>
<path d="M31.7419 10.3254C30.9575 8.94432 29.699 7.88506 28.1932 7.33853C25.8447 6.4373 23.5746 6.6948 21.3827 8.08525V0H18.2254V20.7796H21.3827V19.9556C22.9365 20.9888 24.8291 21.4028 26.6797 21.1144C28.5247 20.8437 30.1857 19.8622 31.2983 18.3849C33.1249 16.0675 33.3076 12.9776 31.7419 10.3254ZM29.6805 14.5483C29.4718 16.5825 27.5669 18.3077 25.3751 18.1274C23.1832 17.9472 21.1479 15.9388 21.4088 13.5698C21.4894 12.0335 22.4307 10.6694 23.8499 10.0326C25.269 9.39569 26.9295 9.59211 28.1559 10.5419C29.3822 11.4917 29.9702 13.0367 29.6805 14.5483Z" fill="#F8F3EE"/>
</svg>
