<svg width="24" height="24" viewBox="0 0 24 24" fill="none" xmlns="http://www.w3.org/2000/svg">
<g clip-path="url(#clip0_252:3844)">
<path d="M23.8769 23.9997V23.9987H23.8829V15.1967C23.8829 10.8907 22.9559 7.57373 17.9219 7.57373C15.5019 7.57373 13.8779 8.90173 13.2149 10.1607H13.1449V7.97573H8.37195V23.9987H13.3419V16.0647C13.3419 13.9757 13.7379 11.9557 16.3249 11.9557C18.8739 11.9557 18.9119 14.3397 18.9119 16.1987V23.9997H23.8769Z" fill="#F8F3EE"/>
<path d="M0.395996 7.97705H5.372V24H0.395996V7.97705Z" fill="#F8F3EE"/>
<path d="M2.882 -0.217285C1.291 -0.217285 0 1.07371 0 2.66472C0 4.25572 1.291 5.57372 2.882 5.57372C4.473 5.57372 5.764 4.25572 5.764 2.66472C5.763 1.07371 4.472 -0.217285 2.882 -0.217285V-0.217285Z" fill="#F8F3EE"/>
</g>
<defs>
<clipPath id="clip0_252:3844">
<rect width="24" height="24" fill="white"/>
</clipPath>
</defs>
</svg>
