<svg width="24" height="24" viewBox="0 0 24 24" fill="none" xmlns="http://www.w3.org/2000/svg">
<path fill-rule="evenodd" clip-rule="evenodd" d="M4.14007 0.630048C4.90244 0.333408 5.7754 0.130848 7.05292 0.072672C8.33313 0.013536 8.74249 0 12.0014 0C15.2604 0 15.6695 0.014496 16.949 0.072672C18.2256 0.129888 19.098 0.333408 19.8619 0.630048C20.6499 0.936384 21.3199 1.3463 21.9867 2.01418C22.6535 2.68205 23.0637 3.35088 23.3709 4.1399C23.6675 4.90224 23.8701 5.77507 23.9283 7.05264C23.9865 8.33213 24 8.74118 24 12C24 15.2588 23.9865 15.6669 23.9283 16.9474C23.8711 18.2248 23.6675 19.0973 23.3709 19.8601C23.0637 20.6491 22.6546 21.319 21.9867 21.9858C21.3188 22.6526 20.6499 23.0628 19.8609 23.37C19.098 23.6666 18.2257 23.8692 16.948 23.9273C15.6685 23.9865 15.2594 24 12.0005 24C8.74153 24 8.33313 23.9855 7.05292 23.9273C5.7754 23.8692 4.90388 23.6666 4.14007 23.37C3.35053 23.0628 2.68206 22.6524 2.01426 21.9858C1.34645 21.3193 0.936421 20.6491 0.630073 19.8601C0.333421 19.0973 0.130854 18.2249 0.0726753 16.9474C0.0135369 15.6679 0 15.2588 0 12C0 8.74118 0.0135369 8.33213 0.0726753 7.05264C0.130854 5.77517 0.333421 4.90272 0.630073 4.1399C0.936421 3.3504 1.34636 2.68099 2.01426 2.01418C2.68216 1.34736 3.35053 0.936384 4.14007 0.630048ZM11.9993 7C9.23804 7 7 9.23877 7 12C7 14.7612 9.23804 17 11.9993 17C14.7608 17 17 14.7609 17 12C17 9.23908 14.7608 7 11.9993 7ZM5 12C5 8.1346 8.13307 5 11.9993 5C15.8652 5 19 8.13428 19 12C19 15.8657 15.8652 19 11.9993 19C8.13307 19 5 15.8654 5 12ZM19.5 6C20.3284 6 21 5.32843 21 4.5C21 3.67157 20.3284 3 19.5 3C18.6716 3 18 3.67157 18 4.5C18 5.32843 18.6716 6 19.5 6Z" fill="#F8F3EE"/>
</svg>
