<svg width="16" height="13" viewBox="0 0 16 13" fill="none" xmlns="http://www.w3.org/2000/svg">
<path d="M15.9168 1.5552C15.818 1.44951 15.6606 1.42327 15.5328 1.4912C15.378 1.56212 15.2174 1.61993 15.0528 1.664C15.2969 1.35987 15.4814 1.01248 15.5968 0.640004C15.6284 0.510928 15.5769 0.375789 15.4674 0.300451C15.358 0.225114 15.2134 0.225254 15.104 0.300804C14.5941 0.582865 14.0499 0.797972 13.4848 0.940804C12.8779 0.336964 12.0562 -0.00139233 11.2 4.30653e-06C10.517 0.0150235 9.85182 0.221225 9.28005 0.595204C8.06405 1.28 7.85285 2.8608 7.94245 3.84C5.68812 3.64989 3.60841 2.54995 2.18245 0.793604C2.12411 0.703875 2.02685 0.64694 1.92005 0.640004C1.81334 0.647206 1.71728 0.707241 1.66405 0.800004C1.00475 1.9417 1.05951 3.36052 1.80485 4.448C1.70885 4.384 1.60645 4.3072 1.50405 4.224C1.40858 4.12936 1.26413 4.10447 1.1425 4.16171C1.02086 4.21895 0.947968 4.34612 0.960046 4.48C0.979458 5.67097 1.57609 6.77832 2.56005 7.4496L2.31045 7.3792C2.19176 7.34227 2.06242 7.3774 1.97874 7.46932C1.89505 7.56123 1.87217 7.69329 1.92005 7.808C2.42234 8.94252 3.40622 9.79255 4.60165 10.1248C3.51185 10.7544 2.24932 11.019 0.998446 10.88C0.847227 10.8613 0.703803 10.9518 0.65562 11.0964C0.607436 11.2409 0.667858 11.3994 0.800046 11.4752C2.30492 12.353 4.01791 12.8105 5.76005 12.8C8.22054 12.7799 10.5529 11.7 12.16 9.8368C13.761 8.12092 14.6031 5.83234 14.496 3.488C15.0664 3.05222 15.5578 2.52187 15.9488 1.92C16.0157 1.80372 16.0029 1.65808 15.9168 1.5552Z" fill="black"/>
</svg>
