<svg width="24" height="24" viewBox="0 0 24 24" fill="none" xmlns="http://www.w3.org/2000/svg">
<path d="M4 17.0353C4 15.118 4.81447 14.1058 6.4 13.6706C6.14902 13.0431 6.02353 12.5804 6.02353 12.2823C6.02353 11.179 7.41771 9.81176 8.47059 9.81176C8.73726 9.81176 9.05098 9.88235 9.41177 10.0235C8.65882 7.87451 8.11765 6.24314 7.78824 5.12941C7.35816 3.67788 6.78245 1.79033 7.78824 0.65882C8.18039 0.21961 8.70588 0 9.36471 0C10.4941 0 11.851 2.31373 13.4353 6.94118L13.8353 8.09412C14.4355 6.59371 16.2772 0.44706 18.3529 0.44706C18.9804 0.44706 19.4745 0.65882 19.8353 1.08235C20.8495 2.22337 20.2518 3.91302 19.8353 5.38823C19.5059 6.53333 18.9882 8.10196 18.2824 10.0941C19.1765 10.3137 19.8196 10.7373 20.2118 11.3647C20.6353 12.0392 20.8471 13.0823 20.8471 14.4941C20.8471 17.2863 20.0157 19.5686 18.3529 21.3412C16.6588 23.1137 14.5098 24 11.9059 24C8.69007 24 5.86578 22.1111 4.61176 19.5529C4.20392 18.7059 4 17.8667 4 17.0353ZM5.52941 16.9177C5.52941 17.9005 6.18554 19.0869 6.77647 19.8824C8.16059 21.6716 9.97051 22.4471 12.0941 22.4471C14.1177 22.4471 15.8196 21.6863 17.2 20.1647C18.5647 18.6588 19.2471 16.753 19.2471 14.4471C19.2471 13.6585 19.2449 12.4789 18.6588 11.9765C18.2353 11.6157 17.4039 11.302 16.1647 11.0353C14.9255 10.753 13.6078 10.6118 12.2118 10.6118C11.6722 10.6118 11.3882 10.6932 11.3882 11.2235C11.3882 11.8667 11.749 12.3216 12.4706 12.5882C13.2549 12.9176 14.549 13.0824 16.3529 13.0824H17.0117C17.3805 13.0824 17.708 13.275 17.8118 14.0706C17.1354 14.747 16.0212 14.8378 15.2706 15.4118C14.6431 15.8667 14.1412 16.4079 13.7647 17.0353C13.4039 17.6471 13.2235 18.2274 13.2235 18.7765C13.2235 19.1059 13.302 19.5059 13.4588 19.9765C13.6314 20.4941 13.7176 20.8314 13.7176 20.9882C13.7135 21.1339 13.6706 21.2353 13.4941 21.3059C12.7647 21.4706 12.4314 21.1137 12.1176 20.5176C11.851 20.0157 11.702 19.3725 11.6706 18.5882C11.5756 18.6199 11.2317 18.6118 11.1294 18.6118C11.1451 18.6902 11.1529 18.7843 11.1529 18.8941C11.1529 19.3647 10.9725 19.7647 10.6117 20.0941C10.251 20.4235 9.82744 20.5882 9.34116 20.5882C8.6039 20.5882 7.85881 20.2353 7.10587 19.5294C6.35293 18.8078 5.97646 18.102 5.97646 17.4118C5.97646 17.0022 6.15166 16.7895 6.42352 16.5176C6.81568 17.0039 7.08234 17.3412 7.22352 17.5294C7.88234 18.4549 8.47842 18.9176 9.01175 18.9176C9.31122 18.9176 9.55293 18.6958 9.55293 18.5412C9.55293 18.4157 9.45881 18.1882 9.27058 17.8588C8.99535 17.3428 7.90954 15.9034 7.34117 15.4353C7.10588 15.2157 6.93333 15.1059 6.82353 15.1059C6.29407 15.1059 5.52941 15.7855 5.52941 16.9177ZM7.64706 12.4235C7.64706 12.6274 7.77255 12.9804 8.02353 13.4824C8.48616 14.3746 9.57383 15.8141 10.4 16.5412C10.7765 16.8549 11.0588 17.0118 11.2471 17.0118C11.4885 17.0118 11.7412 16.7246 11.7412 16.4706C11.7412 16.2823 11.6 15.8274 11.3176 15.1059C10.929 14.162 10.1024 12.4345 9.31765 11.7882C9.06667 11.5529 8.82353 11.4353 8.58824 11.4353C8.25254 11.4353 7.64706 12.0504 7.64706 12.4235ZM8.70588 2.25882C8.70588 2.79215 8.89412 3.63137 9.27059 4.77647C9.61569 5.8902 10.1333 7.38039 10.8235 9.24706C11.1788 9.03389 12.0391 9.13511 12.4941 9.17647L10.8706 4.47059C10.4314 3.21569 10.0863 2.4 9.8353 2.02353C9.63137 1.69412 9.42745 1.52941 9.22353 1.52941C8.88229 1.52941 8.70588 1.91478 8.70588 2.25882ZM12.6118 14.2588C12.7529 14.6196 12.902 15.0118 13.0588 15.4353C13.3726 15.0745 13.6863 14.7765 14 14.5412C13.5214 14.4454 13.1361 14.4336 12.6118 14.2588ZM15.0823 9.45882L16.6588 9.74117C17.3647 7.79607 17.9059 6.23529 18.2824 5.05882C18.4993 4.35605 19.1277 2.75408 18.7059 2.21176C18.5633 1.96224 18.1239 1.88762 17.6235 2.68235C17.3255 3.13725 16.9882 3.92941 16.6118 5.05882L15.0823 9.45882Z" fill="#F8F3EE"/>
</svg>
