<svg width="66" height="24" viewBox="0 0 66 24" fill="none" xmlns="http://www.w3.org/2000/svg">
<path d="M64.9491 10.7284C64.6751 8.94969 63.6799 8.04614 61.787 8.04614H56.3315C54.44 8.04614 53.4441 8.94969 53.1694 10.7291C53.1403 10.9427 53.1236 11.1578 53.1192 11.3734V21.9761H56.5314V12.5923C56.5314 11.8681 56.7771 11.5796 57.4422 11.5796H60.6814C61.2774 11.5796 61.5878 11.8681 61.5878 12.5923V21.9761H65V11.3734C65 11.1671 64.9738 10.9362 64.9491 10.7284ZM48.214 21.9761H51.6254V8.04539H48.214V21.9746V21.9761ZM41.9588 3.00972H38.5466V21.9851H41.9588V11.5916H45.227V8.0566H41.9588V3.01046V3.00972ZM33.6646 21.9761H37.0761V3.00075H33.6646V21.9761ZM10.5159 12.5856C10.5159 11.8397 10.1342 11.5804 9.61885 11.5804H6.38188C5.73201 11.5804 5.40998 11.8838 5.40998 12.5602V18.4374H9.60577C10.2026 18.4374 10.5159 18.0487 10.5159 17.4307V12.5856ZM13.8772 10.9354C13.9026 11.1163 13.928 11.3225 13.928 11.5027V18.468C13.928 19.2169 13.7783 19.8088 13.4795 20.3252C12.8311 21.512 12.0598 21.9761 10.8146 21.9761L2.00727 21.9798L2 3H5.40998V8.04614H10.8648C11.0887 8.04614 11.3126 8.0723 11.5118 8.12386C12.8057 8.40786 13.7027 9.43921 13.8772 10.9354ZM23.8897 17.4299C23.8897 18.1541 23.6441 18.4418 22.9796 18.4418H19.7405C19.1437 18.4418 18.834 18.1541 18.834 17.4299V8.04614H15.4219V18.6489C15.4219 18.8551 15.4473 19.0861 15.4727 19.2938C15.7461 21.0725 16.7412 21.9761 18.6348 21.9761H24.0904C25.9818 21.9761 26.9777 21.0725 27.2525 19.2931C27.2772 19.0861 27.3019 18.8551 27.3019 18.6489V8.04614H23.8897V17.4299ZM28.7965 22H32.2072V8.06931H28.7957V22H28.7965Z" fill="#F8F3EE"/>
</svg>
